<?xml version="1.0" standalone="no"?>
<!DOCTYPE svg PUBLIC "-//W3C//DTD SVG 20010904//EN"
 "http://www.w3.org/TR/2001/REC-SVG-20010904/DTD/svg10.dtd">
<svg version="1.0" xmlns="http://www.w3.org/2000/svg"
 width="34.000000pt" height="32.000000pt" viewBox="0 0 34.000000 32.000000"
 preserveAspectRatio="xMidYMid meet">

<g transform="translate(0.000000,32.000000) scale(0.100000,-0.100000)"
fill="#000000" stroke="none">
<path d="M220 275 c-19 -19 -43 -38 -54 -41 -12 -4 -34 -16 -50 -27 -33 -23
-42 -15 -52 46 -4 20 -10 37 -15 37 -14 0 -10 -57 5 -95 13 -31 13 -39 0 -70
-15 -38 -19 -95 -5 -95 5 0 11 17 15 38 10 63 18 68 62 38 21 -14 43 -26 48
-26 6 0 27 -17 48 -37 l38 -37 37 37 38 37 -37 37 -38 37 -30 -29 -30 -29 -45
22 c-59 29 -59 52 0 83 l44 24 31 -30 30 -29 37 37 37 37 -34 35 c-19 19 -37
35 -40 35 -3 0 -21 -16 -40 -35z"/>
</g>
</svg>
