<?xml version="1.0" standalone="no"?>
<!DOCTYPE svg PUBLIC "-//W3C//DTD SVG 20010904//EN"
 "http://www.w3.org/TR/2001/REC-SVG-20010904/DTD/svg10.dtd">
<svg version="1.0" xmlns="http://www.w3.org/2000/svg"
 width="400.000000pt" height="400.000000pt" viewBox="0 0 400.000000 400.000000"
 preserveAspectRatio="xMidYMid meet">

<g transform="translate(0.000000,400.000000) scale(0.100000,-0.100000)"
fill="#000000" stroke="none">
<path d="M410 3989 c-183 -30 -345 -185 -395 -376 -23 -87 -22 -2400 0 -2488
22 -82 61 -150 125 -215 61 -63 118 -99 206 -132 57 -21 76 -22 482 -26 l422
-4 0 -333 0 -333 26 -31 c28 -34 89 -55 129 -45 15 4 245 172 513 375 l487
368 550 1 c327 0 576 4 615 10 197 32 369 196 410 394 7 35 10 433 8 1256 l-3
1205 -23 57 c-68 169 -225 292 -407 319 -79 11 -3073 9 -3145 -2z m698 -1387
c84 -38 135 -127 134 -233 -1 -148 -100 -242 -253 -241 -148 1 -242 100 -241
253 0 98 44 173 124 215 66 34 169 37 236 6z m1000 0 c84 -38 135 -127 134
-233 -1 -148 -100 -242 -253 -241 -148 1 -242 100 -241 253 0 98 44 173 124
215 66 34 169 37 236 6z m1000 0 c84 -38 135 -127 134 -233 -1 -148 -100 -242
-253 -241 -148 1 -242 100 -241 253 0 98 44 173 124 215 66 34 169 37 236 6z"/>
</g>
</svg>
